Coordinates
version=1
nRows=23
nColumns=23
inDegrees=yes

Units are S.I. units (second, meters, Newtons, ...)
If the header above contains a line with 'inDegrees', this indicates whether rotational values are in degrees (yes) or radians (no).

endheader
time	pelvis_tilt	pelvis_list	pelvis_rotation	pelvis_tx	pelvis_ty	pelvis_tz	hip_flexion_r	hip_adduction_r	hip_rotation_r	knee_angle_r	knee_angle_r_beta	ankle_angle_r	subtalar_angle_r	mtp_angle_r	hip_flexion_l	hip_adduction_l	hip_rotation_l	knee_angle_l	knee_angle_l_beta	ankle_angle_l	subtalar_angle_l	mtp_angle_l
     22.50000000	      5.58027998	      9.07035465	     12.74709613	      1.96062619	      0.81640905	      0.98445704	      3.58757486	    -16.12219436	    -19.54847227	    108.58024317	      1.89508275	    -11.73915860	    -20.77479637	      0.00000000	     18.20142120	     13.82281061	      4.44012219	     49.84857230	      0.87002171	     17.97158397	     -0.77421828	      0.00000000
     22.50666667	      5.87419161	      9.16196491	     12.34228601	      1.95857043	      0.81661915	      0.98465192	      7.15383008	    -16.83077551	    -18.01497528	    110.04921114	      1.92072107	    -10.98711403	    -20.14379737	      0.00000000	     15.77498170	     13.25069893	      4.35073474	     50.21826090	      0.87647400	     20.34030256	      0.53111324	      0.00000000
     22.51333333	      6.34710485	      9.24796337	     11.79977923	      1.95674330	      0.81769398	      0.98476654	     10.55879405	    -17.33516182	    -16.33499473	    110.89894347	      1.93555170	    -10.35412899	    -19.48404801	      0.00000000	     12.79409921	     12.71266377	      4.37966786	     49.91572913	      0.87119382	     22.26569129	      1.20845304	      0.00000000
     22.52000000	      6.45279437	      9.20048613	     11.05205315	      1.95515199	      0.81864055	      0.98502341	     14.49992860	    -17.51395776	    -14.36989834	    111.33452135	      1.94315397	     -9.60701441	    -18.58803983	      0.00000000	     10.08800136	     11.96233422	      3.84503281	     49.27391070	      0.85999198	     23.87855685	      2.75913998	      0.00000000
     22.52666667	      6.78752136	      9.12270671	     10.28757429	      1.95390250	      0.82047384	      0.98506855	     17.96982641	    -17.46347095	    -12.57069834	    111.09285965	      1.93893618	     -9.03561841	    -17.91776343	      0.00000000	      6.77659043	     11.35191411	      3.64487219	     47.95879116	      0.83703881	     24.86630108	      3.34122090	      0.00000000
     22.53333333	      6.96860711	      8.93748040	      9.53387259	      1.95301413	      0.82251559	      0.98492200	     21.39843530	    -17.16205386	    -10.90811682	    110.31776727	      1.92540826	     -8.50523630	    -17.36084935	      0.00000000	      3.44841609	     10.73960342	      3.42056314	     46.24607346	      0.80714625	     25.44726785	      3.89027610	      0.00000000
     22.54000000	      7.17853958	      8.62019994	      8.85990122	      1.95254771	      0.82498927	      0.98457545	     24.44062360	    -16.61623058	     -9.57901367	    108.95973770	      1.90170618	     -8.01318009	    -17.09706068	      0.00000000	     -0.09225432	     10.05149475	      3.24510231	     44.11861401	      0.77001508	     25.47098465	      4.46854409	      0.00000000
     22.54666667	      7.55112249	      8.08794631	      8.31003403	      1.95250487	      0.82813494	      0.98403823	     26.84507918	    -15.78861194	     -8.73457470	    106.95917343	      1.86678974	     -7.63899300	    -17.21212845	      0.00000000	     -3.97453766	      9.20469153	      3.28009133	     41.56502283	      0.72544650	     24.94248607	      4.71658690	      0.00000000
     22.55333333	      7.43852970	      7.54975344	      7.75942576	      1.95270697	      0.83077364	      0.98347019	     29.57379694	    -14.91344156	     -7.91291084	    104.65297718	      1.82653902	     -7.26925643	    -17.59354982	      0.00000000	     -7.37170067	      8.49468179	      3.20001339	     38.81850543	      0.67751073	     23.87497134	      4.91903532	      0.00000000
     22.56000000	      7.79789961	      6.65441221	      7.67120695	      1.95345984	      0.83457754	      0.98237723	     31.02182118	    -13.89320268	     -8.08809958	    101.56540902	      1.77265079	     -7.02261434	    -18.35148288	      0.00000000	    -11.39807326	      7.32862670	      3.64993103	     35.67279454	      0.62260772	     22.08987701	      4.64091300	      0.00000000
     22.56666667	      7.74726919	      5.72596822	      7.59901220	      1.95440340	      0.83784907	      0.98138254	     32.70604306	    -12.83401313	     -8.29010512	     98.20070126	      1.71392556	     -6.75897038	    -19.25705546	      0.00000000	    -14.89923450	      6.16586509	      3.86970924	     32.50157365	      0.56725947	     19.75813126	      4.48716930	      0.00000000
     22.57333333	      7.48656270	      4.73089246	      7.66719177	      1.95555830	      0.84088142	      0.98035445	     34.29977744	    -11.79770448	     -8.69996236	     94.48352740	      1.64904864	     -6.46823463	    -20.16523931	      0.00000000	    -18.05069489	      4.90332870	      3.97657707	     29.37042398	      0.51261060	     16.91388167	      4.38395848	      0.00000000
     22.58000000	      7.08519998	      3.63975854	      7.85069365	      1.95681271	      0.84374910	      0.97934188	     35.73986605	    -10.74253482	     -9.29837875	     90.41563478	      1.57805052	     -6.16790028	    -20.99541348	      0.00000000	    -20.83934299	      3.50621185	      3.91442724	     26.42730828	      0.46124354	     13.59711302	      4.34420087	      0.00000000
     22.58666667	      6.43357720	      2.56128962	      8.09140382	      1.95805972	      0.84622259	      0.97841788	     37.22671816	     -9.75352032	     -9.90329864	     86.07598864	      1.50230941	     -5.77923719	    -21.54564665	      0.00000000	    -23.04615923	      2.10723750	      3.57303239	     23.87866433	      0.41676131	      9.99294536	      4.40164330	      0.00000000
     22.59333333	      5.55786824	      1.53389750	      8.32611847	      1.95938450	      0.84829452	      0.97771261	     38.72400073	     -8.79824832	    -10.39389057	     81.48951820	      1.42226040	     -5.31597536	    -21.68917085	      0.00000000	    -24.65675487	      0.76921187	      2.91172283	     21.86559699	      0.38162666	      6.19260512	      4.58512761	      0.00000000
     22.60000000	      4.53769214	      0.62418006	      8.50888533	      1.96055900	      0.85013808	      0.97720143	     40.17132541	     -7.92677531	    -10.69711938	     76.67539052	      1.33823802	     -4.69429288	    -21.27103354	      0.00000000	    -25.71194659	     -0.42531111	      1.95558753	     20.46394675	      0.35716325	      2.24123282	      4.70596011	      0.00000000
     22.60666667	      2.65207074	      0.17694458	      8.62741567	      1.96156308	      0.85071896	      0.97698498	     42.47692027	     -7.50177880	    -10.42114013	     71.91369040	      1.25513067	     -3.89868875	    -20.21587945	      0.00000000	    -25.22960620	     -1.04672877	      0.86225964	     20.23132046	      0.35310315	     -1.45610087	      4.97684280	      0.00000000
     22.61333333	      2.46020351	     -0.79053227	      8.60855598	      1.96270985	      0.85365590	      0.97688005	     42.35000870	     -6.28193616	    -10.59932694	     66.36175206	      1.15823107	     -3.03207179	    -18.54247127	      0.00000000	    -26.56071722	     -2.31659127	     -0.64142021	     19.70915887	      0.34398972	     -5.61819064	      4.20927671	      0.00000000
     22.62000000	      1.58904216	     -1.30200181	      8.52334750	      1.96369623	      0.85553615	      0.97698857	     42.83132475	     -5.49805733	    -10.25484307	     60.90400940	      1.06297549	     -1.95263107	    -16.13351969	      0.00000000	    -26.55874703	     -3.05587044	     -2.18037507	     20.39932677	      0.35603542	     -9.31702528	      3.31610610	      0.00000000
     22.62666667	      0.93085396	     -1.70751805	      8.35353636	      1.96460025	      0.85752314	      0.97719442	     42.79284018	     -4.71340509	     -9.74965862	     55.29121238	      0.96501370	     -0.78723510	    -13.21480535	      0.00000000	    -26.38066025	     -3.70943753	     -3.78599647	     21.84645416	      0.38129255	    -12.63672255	      1.84661575	      0.00000000
     22.63333333	      0.40041872	     -1.95640999	      8.12739263	      1.96549026	      0.85944291	      0.97754339	     42.35219227	     -4.03300790	     -9.13769400	     49.66022446	      0.86673442	      0.31334217	     -9.98820375	      0.00000000	    -25.97195101	     -4.24983963	     -5.38532915	     24.01867032	      0.41920488	    -15.53231411	     -0.14000129	      0.00000000
     22.64000000	      0.10452807	     -2.12252048	      7.85742790	      1.96632280	      0.86132016	      0.97798593	     41.42609150	     -3.39255758	     -8.49419190	     44.08502988	      0.76942892	      1.28058041	     -6.61334926	      0.00000000	    -25.46589037	     -4.75365684	     -6.81355901	     26.88911217	      0.46930354	    -17.82642471	     -2.68185706	      0.00000000
     22.64666667	     -0.04857476	     -2.16566170	      7.56752406	      1.96707835	      0.86296026	      0.97849124	     40.18366718	     -2.86636845	     -7.81218666	     38.73854698	      0.67611519	      1.97600558	     -3.46221507	      0.00000000	    -24.79475615	     -5.14547234	     -7.88778840	     30.39966302	      0.53057421	    -19.42559360	     -5.70672008	      0.00000000
